# xmcd
#
# Track frame offsets:
#	150
#	30105
#	49410
#	68835
#	91195
#	112017
#	126465
#	146097
#	166132
#	193440
#	216387
#	230967
#	247935
#	263605
#	282075
#	298892
#	319095
#
# Disc length: 4453 seconds
#
# Revision: 2
# Processed by: cddbd v1.5.2PL0 Copyright (c) Steve Scherf et al.
# Submitted via: audiograbber 1.83.01
#
DISCID=0c116311
DTITLE=Spann, Otis and Lightnin' Hopkins - The Complete Candid Otis Spann/Lightni
DTITLE=n' Hopkins Sessions - Disc 1 of 3
DYEAR=1992
DGENRE=Blues
TTITLE0=Beat-Up Team
TTITLE1=Great Northern Stomp
TTITLE2=Cow Cow Blues
TTITLE3=Walkin' The Blues
TTITLE4=Otis In The Dark
TTITLE5=This Is The Blues
TTITLE6=Worried Life Blues
TTITLE7=Country Boy
TTITLE8=Beat-Up Team
TTITLE9=The Hard Way
TTITLE10=My Home Is On The Delta
TTITLE11=It Must Have Been The Devil
TTITLE12=Take A Little Walk With Me
TTITLE13=Ramblin' On My Mind
TTITLE14=Little Boy Blue
TTITLE15=My Daily Wish
TTITLE16=Spann And Bob
EXTD=
EXTT0=
EXTT1=
EXTT2=
EXTT3=
EXTT4=
EXTT5=
EXTT6=
EXTT7=
EXTT8=
EXTT9=
EXTT10=
EXTT11=
EXTT12=
EXTT13=
EXTT14=
EXTT15=
EXTT16=
PLAYORDER=
